<svg width="73" height="16" viewBox="0 0 73 16" fill="none" xmlns="http://www.w3.org/2000/svg">
<path d="M7.10083 2.35509C7.25457 1.88192 7.92398 1.88192 8.07772 2.35509L9.08826 5.46521C9.15702 5.67682 9.35421 5.82009 9.57671 5.82009H12.8469C13.3444 5.82009 13.5513 6.45674 13.1488 6.74917L10.5031 8.67133C10.3231 8.80211 10.2478 9.03393 10.3166 9.24554L11.3271 12.3557C11.4808 12.8288 10.9393 13.2223 10.5368 12.9299L7.89115 11.0077C7.71115 10.8769 7.46741 10.8769 7.2874 11.0077L4.64177 12.9299C4.23927 13.2223 3.69771 12.8288 3.85145 12.3557L4.86199 9.24554C4.93074 9.03393 4.85542 8.80211 4.67542 8.67133L2.02979 6.74917C1.62729 6.45674 1.83415 5.82009 2.33167 5.82009H5.60184C5.82434 5.82009 6.02154 5.67682 6.09029 5.46521L7.10083 2.35509Z" fill="url(#paint0_linear_9_943)"/>
<path d="M21.4811 2.35509C21.6349 1.88192 22.3043 1.88192 22.458 2.35509L23.4686 5.46521C23.5373 5.67682 23.7345 5.82009 23.957 5.82009H27.2272C27.7247 5.82009 27.9316 6.45674 27.5291 6.74917L24.8834 8.67133C24.7034 8.80211 24.6281 9.03393 24.6969 9.24554L25.7074 12.3557C25.8612 12.8288 25.3196 13.2223 24.9171 12.9299L22.2715 11.0077C22.0915 10.8769 21.8477 10.8769 21.6677 11.0077L19.0221 12.9299C18.6196 13.2223 18.078 12.8288 18.2318 12.3557L19.2423 9.24554C19.3111 9.03393 19.2357 8.80211 19.0557 8.67133L16.4101 6.74917C16.0076 6.45674 16.2145 5.82009 16.712 5.82009H19.9822C20.2047 5.82009 20.4018 5.67682 20.4706 5.46521L21.4811 2.35509Z" fill="url(#paint1_linear_9_943)"/>
<path d="M35.8615 2.35509C36.0153 1.88192 36.6847 1.88192 36.8384 2.35509L37.8489 5.46521C37.9177 5.67682 38.1149 5.82009 38.3374 5.82009H41.6076C42.1051 5.82009 42.3119 6.45674 41.9094 6.74917L39.2638 8.67133C39.0838 8.80211 39.0085 9.03393 39.0772 9.24554L40.0878 12.3557C40.2415 12.8288 39.7 13.2223 39.2975 12.9299L36.6518 11.0077C36.4718 10.8769 36.2281 10.8769 36.0481 11.0077L33.4025 12.9299C33 13.2223 32.4584 12.8288 32.6121 12.3557L33.6227 9.24554C33.6914 9.03393 33.6161 8.80211 33.4361 8.67133L30.7905 6.74917C30.388 6.45674 30.5948 5.82009 31.0923 5.82009H34.3625C34.585 5.82009 34.7822 5.67682 34.851 5.46521L35.8615 2.35509Z" fill="url(#paint2_linear_9_943)"/>
<path d="M50.2419 2.35509C50.3956 1.88192 51.065 1.88192 51.2188 2.35509L52.2293 5.46521C52.2981 5.67682 52.4953 5.82009 52.7178 5.82009H55.9879C56.4855 5.82009 56.6923 6.45674 56.2898 6.74917L53.6442 8.67133C53.4642 8.80211 53.3889 9.03393 53.4576 9.24554L54.4682 12.3557C54.6219 12.8288 54.0803 13.2223 53.6778 12.9299L51.0322 11.0077C50.8522 10.8769 50.6085 10.8769 50.4285 11.0077L47.7828 12.9299C47.3803 13.2223 46.8388 12.8288 46.9925 12.3557L48.003 9.24554C48.0718 9.03393 47.9965 8.80211 47.8165 8.67133L45.1708 6.74917C44.7683 6.45674 44.9752 5.82009 45.4727 5.82009H48.7429C48.9654 5.82009 49.1626 5.67682 49.2313 5.46521L50.2419 2.35509Z" fill="url(#paint3_linear_9_943)"/>
<path d="M64.6221 2.35509C64.7759 1.88192 65.4453 1.88192 65.599 2.35509L66.6096 5.46521C66.6783 5.67682 66.8755 5.82009 67.098 5.82009H70.3682C70.8657 5.82009 71.0726 6.45674 70.6701 6.74917L68.0244 8.67133C67.8444 8.80211 67.7691 9.03393 67.8379 9.24554L68.8484 12.3557C69.0022 12.8288 68.4606 13.2223 68.0581 12.9299L65.4125 11.0077C65.2325 10.8769 64.9887 10.8769 64.8087 11.0077L62.1631 12.9299C61.7606 13.2223 61.219 12.8288 61.3728 12.3557L62.3833 9.24554C62.452 9.03393 62.3767 8.80211 62.1967 8.67133L59.5511 6.74917C59.1486 6.45674 59.3554 5.82009 59.853 5.82009H63.1231C63.3456 5.82009 63.5428 5.67682 63.6116 5.46521L64.6221 2.35509Z" fill="url(#paint4_linear_9_943)"/>
<defs>
<linearGradient id="paint0_linear_9_943" x1="0.399109" y1="0.851807" x2="15.0614" y2="1.794" gradientUnits="userSpaceOnUse">
<stop stop-color="#E98547"/>
<stop offset="1" stop-color="#FFAE7C"/>
</linearGradient>
<linearGradient id="paint1_linear_9_943" x1="14.7794" y1="0.851807" x2="29.4418" y2="1.794" gradientUnits="userSpaceOnUse">
<stop stop-color="#E98547"/>
<stop offset="1" stop-color="#FFAE7C"/>
</linearGradient>
<linearGradient id="paint2_linear_9_943" x1="29.1598" y1="0.851807" x2="43.8221" y2="1.794" gradientUnits="userSpaceOnUse">
<stop stop-color="#E98547"/>
<stop offset="1" stop-color="#FFAE7C"/>
</linearGradient>
<linearGradient id="paint3_linear_9_943" x1="43.5402" y1="0.851807" x2="58.2025" y2="1.794" gradientUnits="userSpaceOnUse">
<stop stop-color="#E98547"/>
<stop offset="1" stop-color="#FFAE7C"/>
</linearGradient>
<linearGradient id="paint4_linear_9_943" x1="57.9204" y1="0.851807" x2="72.5827" y2="1.794" gradientUnits="userSpaceOnUse">
<stop stop-color="#E98547"/>
<stop offset="1" stop-color="#FFAE7C"/>
</linearGradient>
</defs>
</svg>
