<svg width="29" height="24" viewBox="0 0 29 24" fill="none" xmlns="http://www.w3.org/2000/svg">
<path d="M20.3019 1.06148C18.8663 -0.291179 16.4064 -0.599891 14.1811 1.62545C11.959 -0.59771 9.49585 -0.291179 8.06029 1.06039C6.38801 2.6345 6.35855 5.26782 7.97084 6.88011L14.1811 13.0914L20.3913 6.8812C22.0036 5.26891 21.9742 2.63559 20.3019 1.06148ZM19.6201 6.10887L14.1811 11.549L8.74207 6.10996C7.56177 4.92857 7.58468 3.00757 8.80862 1.85563C9.33004 1.36256 10.0282 1.09203 10.7743 1.09203C12.3364 1.09203 13.039 2.0258 14.1811 3.16793C15.2927 2.05634 16.0083 1.09203 17.5878 1.09203C18.334 1.09203 19.0321 1.36256 19.5546 1.85453C20.7753 3.0043 20.8037 4.92529 19.6201 6.10887Z" fill="#9834ED"/>
<path d="M26.4979 1.09201C25.5369 1.09201 24.7395 1.81198 24.6435 2.76757L23.953 9.58651C23.6203 9.65741 23.3148 9.81886 23.0781 10.0556L17.5682 15.1848C16.81 15.8753 16.3704 16.8603 16.3628 17.8901V24H22.9079V21.1245C22.9079 20.6805 23.0945 20.2485 23.4326 19.9278L27.5724 15.7498C28.0819 15.235 28.3622 14.5532 28.3622 13.8299V2.95628C28.3622 1.9287 27.5255 1.09201 26.4979 1.09201ZM27.2714 13.8299C27.2714 14.2641 27.1034 14.6732 26.7968 14.983L22.6701 19.1479C22.128 19.6606 21.8171 20.3805 21.8171 21.1245V22.9091H17.4536V17.8966C17.4591 17.1734 17.7678 16.4807 18.3078 15.9898L23.8352 10.8421C23.9835 10.6937 24.1864 10.6206 24.4013 10.6425C24.5202 10.6534 24.6915 10.6959 24.8377 10.8421C24.9718 10.9763 25.046 11.1552 25.046 11.3439C25.046 11.5326 24.9707 11.7115 24.8562 11.8271L20.6008 15.6866L21.3338 16.4938L25.6089 12.6158C25.9492 12.2755 26.1369 11.8239 26.1369 11.3428C26.1369 10.8617 25.9503 10.4101 25.61 10.0708C25.4442 9.90285 25.2511 9.77413 25.0395 9.68577L25.7278 2.87883C25.7682 2.48176 26.0998 2.18287 26.4979 2.18287C26.9245 2.18287 27.2714 2.52976 27.2714 2.95628V13.8299Z" fill="#9834ED"/>
<path d="M10.794 15.1848L5.28411 10.0556C5.04739 9.81886 4.74195 9.65632 4.40924 9.58651L3.71873 2.76757C3.62273 1.81198 2.82532 1.09201 1.86427 1.09201C0.836687 1.09201 0 1.9287 0 2.95628V13.8299C0 14.5532 0.28035 15.235 0.78978 15.7487L4.92958 19.9267C5.26774 20.2474 5.45428 20.6805 5.45428 21.1245V24H11.9994V17.8901C11.9929 16.8603 11.5522 15.8764 10.794 15.1848ZM10.9086 22.9091H6.54514V21.1245C6.54514 20.3816 6.23424 19.6606 5.69209 19.1479L1.56538 14.983C1.25885 14.6732 1.09086 14.2641 1.09086 13.8299V2.95628C1.09086 2.52976 1.43775 2.18287 1.86427 2.18287C2.26244 2.18287 2.59406 2.48176 2.63442 2.87665L3.32275 9.68359C3.11112 9.77304 2.91804 9.90176 2.75223 10.0687C2.41297 10.4079 2.22535 10.8595 2.22535 11.3406C2.22535 11.8217 2.41297 12.2733 2.75332 12.6136L7.02838 16.4916L7.76144 15.6844L3.50601 11.8249C3.39038 11.7093 3.3162 11.5315 3.3162 11.3417C3.3162 11.1519 3.39038 10.9741 3.52456 10.8399C3.66964 10.6937 3.84199 10.6512 3.9609 10.6403C4.17689 10.6195 4.3787 10.6915 4.52705 10.8399L10.0544 15.9876C10.5944 16.4785 10.9031 17.1712 10.9086 17.8945V22.9091Z" fill="#9834ED"/>
</svg>
