<svg width="29" height="26" viewBox="0 0 29 26" fill="none" xmlns="http://www.w3.org/2000/svg">
<path d="M3.97376 9.30057H14.7934C15.1208 9.30057 15.3863 9.03507 15.3863 8.70767C15.3863 8.38022 15.1208 8.11478 14.7934 8.11478H3.97376C3.64636 8.11478 3.38086 8.38022 3.38086 8.70767C3.38086 9.03513 3.64636 9.30057 3.97376 9.30057Z" fill="#9834ED"/>
<path d="M3.97376 12.0056H14.7934C15.1208 12.0056 15.3863 11.7401 15.3863 11.4128C15.3863 11.0854 15.1208 10.8199 14.7934 10.8199H3.97376C3.64636 10.8199 3.38086 11.0854 3.38086 11.4128C3.38086 11.7402 3.64636 12.0056 3.97376 12.0056Z" fill="#9834ED"/>
<path d="M12.3438 14.1179C12.3438 13.7905 12.0783 13.525 11.7509 13.525H3.97376C3.64636 13.525 3.38086 13.7905 3.38086 14.1179C3.38086 14.4453 3.64636 14.7108 3.97376 14.7108H11.7509C12.0784 14.7108 12.3438 14.4454 12.3438 14.1179Z" fill="#9834ED"/>
<path d="M28.3071 9.94544L24.489 5.69863C24.2701 5.45507 23.8952 5.43527 23.6518 5.65405L20.8219 8.19764C20.8217 8.19781 20.8215 8.19793 20.8214 8.19811L18.7669 10.0453V5.32659C18.7669 5.14362 18.6824 4.97091 18.5381 4.85856L12.4526 0.124864C12.446 0.119706 12.439 0.1152 12.4323 0.110338C12.4267 0.106425 12.4213 0.102215 12.4155 0.0984209C12.4047 0.0912469 12.3936 0.0847843 12.3824 0.0783217C12.3738 0.0734006 12.3651 0.0688353 12.3563 0.0643293C12.3455 0.0589339 12.3349 0.0535386 12.3239 0.0487955C12.3161 0.0453566 12.308 0.0425106 12.3001 0.0394869C12.2914 0.0361666 12.2828 0.0329057 12.2741 0.0300005C12.2657 0.0272732 12.2574 0.0249016 12.2489 0.02253C12.2398 0.0199213 12.2306 0.017609 12.2213 0.0154746C12.2132 0.0136366 12.2051 0.0117986 12.197 0.0103164C12.1861 0.00835984 12.1752 0.00675904 12.1642 0.00533609C12.1574 0.00444674 12.1506 0.00343874 12.1436 0.00278656C12.1255 0.00112644 12.1073 0 12.0889 0C12.0889 0 12.0887 0 12.0886 0H12.0886H12.0863H0.592897C0.26544 0 0 0.265499 0 0.592897V24.9364C0 25.2638 0.26544 25.5293 0.592897 25.5293H18.174C18.5014 25.5293 18.7669 25.2638 18.7669 24.9364V19.3202L25.431 13.3267C25.4311 13.3266 25.4312 13.3264 25.4313 13.3263L28.2624 10.7828C28.3794 10.6778 28.4498 10.5304 28.4582 10.3734C28.4666 10.2163 28.4122 10.0624 28.3071 9.94544ZM16.7559 4.97465L12.7003 5.55195L12.6862 1.80881L16.7559 4.97465ZM1.18579 24.3435V1.18579H11.4979L11.517 6.2371C11.5177 6.40851 11.5925 6.57132 11.7222 6.68338C11.8306 6.77705 11.9685 6.82775 12.1099 6.82775C12.1377 6.82775 12.1656 6.82579 12.1935 6.82182L17.5811 6.0549V11.1115L12.3287 15.8341C12.3202 15.8417 12.3128 15.8499 12.3049 15.8578C12.3003 15.8624 12.2956 15.8667 12.2911 15.8714C12.2751 15.8886 12.2601 15.9065 12.2464 15.9251C12.2464 15.9252 12.2463 15.9252 12.2463 15.9252C12.2325 15.9441 12.2203 15.9638 12.209 15.9838C12.2065 15.9883 12.2041 15.9929 12.2017 15.9975C12.1928 16.0144 12.1847 16.0316 12.1775 16.0491C12.1763 16.0522 12.1746 16.0549 12.1734 16.058L9.83623 22.0018C9.75405 22.2107 9.79704 22.4482 9.94722 22.6152C10.0613 22.7421 10.2223 22.8117 10.3881 22.8117C10.4406 22.8117 10.4935 22.8047 10.5455 22.7904L16.7006 21.0942C16.701 21.0941 16.7014 21.0939 16.7018 21.0938C16.7237 21.0877 16.7451 21.0801 16.7662 21.0715C16.7717 21.0693 16.7771 21.0668 16.7824 21.0644C16.7989 21.0572 16.8149 21.0492 16.8306 21.0404C16.8353 21.0379 16.8401 21.0355 16.8446 21.0328C16.8639 21.0214 16.8826 21.009 16.9006 20.9954C16.9034 20.9932 16.9061 20.9908 16.9089 20.9886C16.9193 20.9804 16.9297 20.9724 16.9396 20.9635L17.5811 20.3866V24.3435H1.18579ZM12.9258 17.3851L14.0646 18.6521L15.4612 20.2059L11.3738 21.3322L12.9258 17.3851ZM16.5876 19.6853L14.3165 17.1584L13.5623 16.3196L21.1733 9.47646L22.1818 10.5987L24.1974 12.8413L16.5876 19.6853ZM25.0793 12.0486L23.4509 10.2368L22.0551 8.68369L24.0036 6.93227L27.0287 10.2972L25.0793 12.0486Z" fill="#9834ED"/>
</svg>
