<svg width="34" height="24" viewBox="0 0 34 24" fill="none" xmlns="http://www.w3.org/2000/svg">
<path d="M31.7903 6.15862L17.8796 0.272459C17.4521 0.0926317 16.993 0 16.5293 0C16.0655 0 15.6064 0.0926317 15.1789 0.272459L1.26817 6.15862C0.892171 6.31766 0.571367 6.58395 0.345825 6.92424C0.120283 7.26453 0 7.66373 0 8.07197C0 8.48022 0.120283 8.87942 0.345825 9.2197C0.571367 9.55999 0.892171 9.82628 1.26817 9.98532L6.14329 12.0469V18.6761C6.13955 19.2713 6.29082 19.8573 6.58222 20.3764C6.87363 20.8954 7.29513 21.3297 7.80527 21.6365C10.4526 23.1843 13.464 24 16.5306 24C19.5973 24 22.6087 23.1843 25.256 21.6365C25.7662 21.3297 26.1877 20.8954 26.4791 20.3764C26.7705 19.8573 26.9217 19.2713 26.918 18.6761V12.0469L28.9955 11.1674V14.4512C28.7173 14.5716 28.4758 14.7633 28.2954 15.0069C28.115 15.2505 28.002 15.5374 27.9679 15.8387C27.9339 16.1399 27.9799 16.4448 28.1013 16.7225C28.2228 17.0003 28.4153 17.2411 28.6596 17.4206C28.4423 17.5804 28.2655 17.789 28.1435 18.0295C28.0214 18.27 27.9574 18.5358 27.9567 18.8056V20.5368C27.9567 20.7204 28.0297 20.8966 28.1595 21.0265C28.2894 21.1563 28.4656 21.2293 28.6492 21.2293H30.7267C30.9103 21.2293 31.0865 21.1563 31.2163 21.0265C31.3462 20.8966 31.4192 20.7204 31.4192 20.5368V18.8056C31.4185 18.5358 31.3545 18.27 31.2324 18.0295C31.1104 17.789 30.9336 17.5804 30.7163 17.4206C30.9606 17.2411 31.1531 17.0003 31.2746 16.7225C31.396 16.4448 31.442 16.1399 31.408 15.8387C31.3739 15.5374 31.2609 15.2505 31.0805 15.0069C30.9001 14.7633 30.6586 14.5716 30.3804 14.4512V10.5816L31.7903 9.98532C32.1663 9.82628 32.4871 9.55999 32.7127 9.2197C32.9382 8.87942 33.0585 8.48022 33.0585 8.07197C33.0585 7.66373 32.9382 7.26453 32.7127 6.92424C32.4871 6.58395 32.1663 6.31766 31.7903 6.15862ZM30.0342 16.0356C30.0342 16.1041 30.0139 16.171 29.9758 16.228C29.9378 16.2849 29.8837 16.3293 29.8204 16.3555C29.7572 16.3817 29.6876 16.3886 29.6204 16.3752C29.5532 16.3618 29.4915 16.3289 29.4431 16.2804C29.3947 16.232 29.3617 16.1703 29.3484 16.1032C29.335 16.036 29.3419 15.9664 29.3681 15.9031C29.3943 15.8398 29.4386 15.7858 29.4956 15.7477C29.5525 15.7097 29.6195 15.6894 29.6879 15.6894C29.7798 15.6894 29.8678 15.7258 29.9328 15.7908C29.9977 15.8557 30.0342 15.9438 30.0342 16.0356ZM30.0342 19.8443H29.3417V18.8056C29.3417 18.7137 29.3782 18.6257 29.4431 18.5607C29.508 18.4958 29.5961 18.4593 29.6879 18.4593C29.7798 18.4593 29.8678 18.4958 29.9328 18.5607C29.9977 18.6257 30.0342 18.7137 30.0342 18.8056V19.8443ZM25.533 18.6761C25.537 19.0302 25.4488 19.3794 25.277 19.6891C25.1052 19.9988 24.8557 20.2585 24.5531 20.4426C22.1187 21.8648 19.35 22.6142 16.5306 22.6142C13.7113 22.6142 10.9426 21.8648 8.50815 20.4426C8.20556 20.2585 7.9561 19.9988 7.7843 19.6891C7.61249 19.3794 7.52426 19.0302 7.52827 18.6761V12.6327L15.1817 15.8708C15.6091 16.0508 16.0682 16.1435 16.532 16.1435C16.9958 16.1435 17.4549 16.0508 17.8824 15.8708L25.533 12.6327V18.6761ZM31.2509 8.70975L17.3402 14.5959C17.0839 14.7036 16.8086 14.759 16.5306 14.759C16.2526 14.759 15.9774 14.7036 15.7211 14.5959L1.81038 8.70975C1.68505 8.65674 1.57812 8.56798 1.50294 8.45455C1.42776 8.34112 1.38766 8.20805 1.38766 8.07197C1.38766 7.93589 1.42776 7.80282 1.50294 7.6894C1.57812 7.57597 1.68505 7.4872 1.81038 7.43419L15.7211 1.54803C15.9774 1.44015 16.2526 1.38458 16.5306 1.38458C16.8087 1.38458 17.0839 1.44015 17.3402 1.54803L31.2509 7.43419C31.3762 7.4872 31.4832 7.57597 31.5583 7.6894C31.6335 7.80282 31.6736 7.93589 31.6736 8.07197C31.6736 8.20805 31.6335 8.34112 31.5583 8.45455C31.4832 8.56798 31.3762 8.65674 31.2509 8.70975Z" fill="#9834ED"/>
</svg>
