<svg width="145" height="40" viewBox="0 0 145 40" fill="none" xmlns="http://www.w3.org/2000/svg">
<path d="M4.26883 5.3848V20H2.15069V5.3848H4.26883ZM10.9622 5.3848V7.05813H4.09938V5.3848H10.9622ZM12.8473 5.3848V20H10.7292V5.3848H12.8473ZM20.6173 9.40927C22.2129 9.40927 23.3638 9.69875 24.0699 10.2777C24.79 10.8426 25.1572 11.6827 25.1713 12.7983C25.1713 13.7303 24.9665 14.4505 24.557 14.9588C24.1475 15.4672 23.4768 15.7213 22.5448 15.7213H16.5504V14.2598H22.0153C22.4671 14.2598 22.7637 14.1116 22.9049 13.815C23.0602 13.5185 23.1308 13.1796 23.1167 12.7983C23.1167 12.1629 22.9331 11.711 22.566 11.4427C22.2129 11.1744 21.5916 11.0402 20.702 11.0402C19.9818 11.0402 19.417 11.1462 19.0075 11.358C18.598 11.5698 18.3085 11.9369 18.139 12.4594C17.9696 12.9819 17.8849 13.7162 17.8849 14.6623C17.8849 15.7213 17.9908 16.5333 18.2026 17.0981C18.4144 17.6489 18.7462 18.0301 19.1981 18.2419C19.6641 18.4538 20.2784 18.5597 21.0409 18.5597C21.5916 18.5597 22.1988 18.5385 22.8625 18.4961C23.5403 18.4396 24.1546 18.3761 24.7053 18.3055L24.8959 19.6399C24.5711 19.7811 24.1616 19.9012 23.6674 20C23.1873 20.0847 22.6931 20.1483 22.1847 20.1906C21.6763 20.233 21.2104 20.2542 20.7867 20.2542C19.5864 20.2542 18.6121 20.0706 17.8637 19.7035C17.1294 19.3363 16.5928 18.7574 16.2539 17.9666C15.9291 17.1617 15.7667 16.1097 15.7667 14.8105C15.7667 13.4549 15.9362 12.3817 16.2751 11.591C16.614 10.8002 17.1365 10.2424 17.8425 9.91763C18.5486 9.57872 19.4735 9.40927 20.6173 9.40927ZM33.8752 9.40927C35.1602 9.40927 36.0781 9.87527 36.6288 10.8072C37.1795 11.7392 37.4549 13.1019 37.4549 14.8953C37.4549 16.2368 37.3137 17.3029 37.0312 18.0937C36.7488 18.8703 36.3181 19.4281 35.7392 19.767C35.1602 20.0918 34.433 20.2542 33.5575 20.2542C32.8656 20.2542 32.1878 20.1624 31.5241 19.9788C30.8604 19.7811 30.232 19.4846 29.6389 19.0892L29.766 17.9454C30.3873 18.129 30.938 18.2772 31.4182 18.3902C31.8983 18.5032 32.4137 18.5597 32.9644 18.5597C33.5434 18.5597 34.0023 18.4608 34.3412 18.2631C34.6942 18.0654 34.9484 17.6983 35.1037 17.1617C35.2591 16.6251 35.3367 15.8696 35.3367 14.8953C35.3367 13.935 35.2661 13.1866 35.1249 12.65C34.9837 12.0993 34.7578 11.711 34.4471 11.4851C34.1364 11.245 33.7128 11.125 33.1762 11.125C32.6396 11.125 32.1101 11.2521 31.5876 11.5062C31.0651 11.7463 30.465 12.1276 29.7872 12.65L29.5542 11.3791C29.9072 10.9838 30.3167 10.6378 30.7827 10.3413C31.2628 10.0447 31.7712 9.81878 32.3078 9.66345C32.8444 9.494 33.3669 9.40927 33.8752 9.40927ZM29.4695 9.66345L29.7025 11.7604L29.8507 12.0358V18.6867L29.7448 18.9409C29.7872 19.3363 29.8154 19.7246 29.8296 20.1059C29.8578 20.4872 29.8649 20.8896 29.8507 21.3133V24.2151H27.8173V9.66345H29.4695ZM44.5912 9.40927C46.1869 9.40927 47.3377 9.69875 48.0438 10.2777C48.764 10.8426 49.1311 11.6827 49.1452 12.7983C49.1452 13.7303 48.9405 14.4505 48.531 14.9588C48.1214 15.4672 47.4507 15.7213 46.5187 15.7213H40.5244V14.2598H45.9892C46.4411 14.2598 46.7376 14.1116 46.8788 13.815C47.0341 13.5185 47.1047 13.1796 47.0906 12.7983C47.0906 12.1629 46.907 11.711 46.5399 11.4427C46.1869 11.1744 45.5656 11.0402 44.6759 11.0402C43.9558 11.0402 43.3909 11.1462 42.9814 11.358C42.5719 11.5698 42.2824 11.9369 42.113 12.4594C41.9435 12.9819 41.8588 13.7162 41.8588 14.6623C41.8588 15.7213 41.9647 16.5333 42.1765 17.0981C42.3883 17.6489 42.7202 18.0301 43.172 18.2419C43.638 18.4538 44.2523 18.5597 45.0148 18.5597C45.5656 18.5597 46.1728 18.5385 46.8364 18.4961C47.5142 18.4396 48.1285 18.3761 48.6792 18.3055L48.8699 19.6399C48.5451 19.7811 48.1356 19.9012 47.6413 20C47.1612 20.0847 46.667 20.1483 46.1586 20.1906C45.6503 20.233 45.1843 20.2542 44.7607 20.2542C43.5604 20.2542 42.586 20.0706 41.8376 19.7035C41.1033 19.3363 40.5667 18.7574 40.2278 17.9666C39.903 17.1617 39.7407 16.1097 39.7407 14.8105C39.7407 13.4549 39.9101 12.3817 40.249 11.591C40.5879 10.8002 41.1104 10.2424 41.8164 9.91763C42.5225 9.57872 43.4474 9.40927 44.5912 9.40927ZM63.5681 9.66345C64.0765 9.66345 64.3307 9.91057 64.3307 10.4048L64.7543 20H62.848L62.4667 11.2097H62.1278L59.6496 18.1784C59.5931 18.3902 59.5013 18.5526 59.3742 18.6656C59.2471 18.7785 59.0706 18.835 58.8447 18.835H57.4255C57.1996 18.835 57.0231 18.7785 56.896 18.6656C56.783 18.5526 56.6912 18.3902 56.6206 18.1784L54.1424 11.2097H53.8035L53.4434 20H51.5582L51.9607 10.4048C51.9748 9.91057 52.2361 9.66345 52.7444 9.66345H54.7778C55.0038 9.66345 55.1732 9.71993 55.2862 9.8329C55.4133 9.93175 55.5051 10.0941 55.5615 10.3201L57.5526 16.0179C57.6514 16.2721 57.7291 16.5192 57.7856 16.7592C57.8562 16.9993 57.9197 17.2464 57.9762 17.5006H58.2939C58.3646 17.2323 58.4281 16.9781 58.4846 16.7381C58.5552 16.498 58.6329 16.2579 58.7176 16.0179L60.7086 10.3201C60.8357 9.88232 61.104 9.66345 61.5135 9.66345H63.5681ZM72.188 9.40927C73.4024 9.40927 74.3697 9.58579 75.0898 9.93881C75.81 10.2918 76.3325 10.8708 76.6573 11.6757C76.9821 12.4665 77.1444 13.5185 77.1444 14.8317C77.1444 16.1591 76.9821 17.2252 76.6573 18.0301C76.3325 18.8209 75.81 19.3928 75.0898 19.7458C74.3697 20.0988 73.4024 20.2754 72.188 20.2754C70.9736 20.2754 69.9992 20.0988 69.2649 19.7458C68.5448 19.3928 68.0223 18.8209 67.6975 18.0301C67.3727 17.2252 67.2103 16.1591 67.2103 14.8317C67.2103 13.5185 67.3727 12.4665 67.6975 11.6757C68.0223 10.8708 68.5448 10.2918 69.2649 9.93881C69.9992 9.58579 70.9736 9.40927 72.188 9.40927ZM72.188 11.0614C71.4819 11.0614 70.9171 11.1744 70.4935 11.4003C70.084 11.6263 69.7874 12.0146 69.6039 12.5653C69.4344 13.1019 69.3497 13.8574 69.3497 14.8317C69.3497 15.8061 69.4344 16.5686 69.6039 17.1193C69.7874 17.67 70.084 18.0584 70.4935 18.2843C70.9171 18.4961 71.4819 18.602 72.188 18.602C72.894 18.602 73.4518 18.4961 73.8613 18.2843C74.2708 18.0584 74.5603 17.67 74.7298 17.1193C74.8992 16.5686 74.9839 15.8061 74.9839 14.8317C74.9839 13.8574 74.8992 13.1019 74.7298 12.5653C74.5603 12.0146 74.2708 11.6263 73.8613 11.4003C73.4518 11.1744 72.894 11.0614 72.188 11.0614ZM94.0952 9.66345C93.8552 10.2989 93.6363 10.8708 93.4386 11.3791C93.255 11.8734 93.0644 12.3111 92.8667 12.6924C92.6831 13.0737 92.4713 13.3984 92.2313 13.6667C92.0053 13.9209 91.737 14.1257 91.4264 14.281C91.1157 14.4363 90.7486 14.5352 90.3249 14.5775V14.6411C90.7768 14.6835 91.1651 14.7823 91.4899 14.9376C91.8147 15.0788 92.0971 15.2836 92.3372 15.5519C92.5914 15.8202 92.8244 16.1591 93.0362 16.5686C93.248 16.9781 93.4598 17.4723 93.6716 18.0513C93.8975 18.6161 94.1376 19.2657 94.3918 20H92.2948C91.97 19.1527 91.6806 18.4326 91.4264 17.8395C91.1863 17.2464 90.9463 16.7663 90.7062 16.3992C90.4662 16.032 90.1979 15.7708 89.9013 15.6154C89.6048 15.4601 89.2376 15.3824 88.7999 15.3824L88.7787 13.8786C89.1882 13.8786 89.5412 13.7868 89.8378 13.6032C90.1484 13.4196 90.4167 13.1513 90.6427 12.7983C90.8686 12.4453 91.0875 12.0075 91.2993 11.4851C91.5252 10.9626 91.7653 10.3554 92.0195 9.66345H94.0952ZM81.2169 9.66345C81.4711 10.3554 81.7112 10.9626 81.9371 11.4851C82.163 12.0075 82.389 12.4453 82.6149 12.7983C82.855 13.1513 83.1162 13.4196 83.3986 13.6032C83.6951 13.7868 84.0482 13.8786 84.4577 13.8786V15.3824C84.0199 15.3824 83.6528 15.4601 83.3562 15.6154C83.0597 15.7708 82.7914 16.032 82.5514 16.3992C82.3254 16.7663 82.0854 17.2464 81.8312 17.8395C81.5911 18.4326 81.3016 19.1527 80.9627 20H78.8658C79.1341 19.2657 79.3741 18.6161 79.5859 18.0513C79.8119 17.4723 80.0237 16.9781 80.2214 16.5686C80.4332 16.1591 80.6591 15.8202 80.8992 15.5519C81.1534 15.2836 81.4429 15.0788 81.7676 14.9376C82.1065 14.7823 82.5019 14.6835 82.9538 14.6411V14.5775C82.516 14.5352 82.1418 14.4363 81.8312 14.281C81.5346 14.1257 81.2663 13.9209 81.0263 13.6667C80.7862 13.3984 80.5674 13.0737 80.3697 12.6924C80.1861 12.3111 79.9955 11.8734 79.7978 11.3791C79.6142 10.8708 79.4094 10.2989 79.1835 9.66345H81.2169ZM86.1734 13.8786V15.3824H83.9705V13.8786H86.1734ZM87.5714 9.66345V12.6712C87.5714 12.996 87.5502 13.3208 87.5078 13.6456C87.4654 13.9703 87.3878 14.281 87.2748 14.5775C87.3595 14.8882 87.4301 15.1989 87.4866 15.5095C87.5431 15.8061 87.5714 16.0956 87.5714 16.378V20H85.7709V16.378C85.7709 16.0956 85.7992 15.8061 85.8557 15.5095C85.9121 15.1989 85.9757 14.8882 86.0463 14.5775C85.9474 14.281 85.8768 13.9703 85.8345 13.6456C85.7921 13.3208 85.7709 12.996 85.7709 12.6712V9.66345H87.5714ZM89.3082 13.8786V15.3824H87.1901V13.8786H89.3082ZM98.6688 9.66345V20H96.6565V9.66345H98.6688ZM104.028 13.7515V15.2765H98.5417V13.7515H104.028ZM105.849 9.66345V20H103.837V9.66345H105.849ZM113.431 9.40927C115.027 9.40927 116.177 9.69875 116.884 10.2777C117.604 10.8426 117.971 11.6827 117.985 12.7983C117.985 13.7303 117.78 14.4505 117.371 14.9588C116.961 15.4672 116.29 15.7213 115.358 15.7213H109.364V14.2598H114.829C115.281 14.2598 115.577 14.1116 115.719 13.815C115.874 13.5185 115.944 13.1796 115.93 12.7983C115.93 12.1629 115.747 11.711 115.38 11.4427C115.027 11.1744 114.405 11.0402 113.516 11.0402C112.795 11.0402 112.231 11.1462 111.821 11.358C111.412 11.5698 111.122 11.9369 110.953 12.4594C110.783 12.9819 110.699 13.7162 110.699 14.6623C110.699 15.7213 110.804 16.5333 111.016 17.0981C111.228 17.6489 111.56 18.0301 112.012 18.2419C112.478 18.4538 113.092 18.5597 113.855 18.5597C114.405 18.5597 115.012 18.5385 115.676 18.4961C116.354 18.4396 116.968 18.3761 117.519 18.3055L117.71 19.6399C117.385 19.7811 116.975 19.9012 116.481 20C116.001 20.0847 115.507 20.1483 114.998 20.1906C114.49 20.233 114.024 20.2542 113.6 20.2542C112.4 20.2542 111.426 20.0706 110.677 19.7035C109.943 19.3363 109.406 18.7574 109.068 17.9666C108.743 17.1617 108.58 16.1097 108.58 14.8105C108.58 13.4549 108.75 12.3817 109.089 11.591C109.428 10.8002 109.95 10.2424 110.656 9.91763C111.362 9.57872 112.287 9.40927 113.431 9.40927ZM73.0172 24.6634C72.7772 25.2989 72.5583 25.8708 72.3606 26.3791C72.177 26.8734 71.9864 27.3111 71.7887 27.6924C71.6051 28.0737 71.3933 28.3984 71.1533 28.6667C70.9273 28.9209 70.659 29.1257 70.3484 29.281C70.0377 29.4363 69.6705 29.5352 69.2469 29.5775V29.6411C69.6988 29.6835 70.0871 29.7823 70.4119 29.9376C70.7367 30.0788 71.0191 30.2836 71.2592 30.5519C71.5133 30.8202 71.7463 31.1591 71.9581 31.5686C72.17 31.9781 72.3818 32.4723 72.5936 33.0513C72.8195 33.6161 73.0596 34.2657 73.3138 35H71.2168C70.892 34.1527 70.6025 33.4326 70.3484 32.8395C70.1083 32.2464 69.8682 31.7663 69.6282 31.3992C69.3881 31.032 69.1198 30.7708 68.8233 30.6154C68.5267 30.4601 68.1596 30.3824 67.7219 30.3824L67.7007 28.8786C68.1102 28.8786 68.4632 28.7868 68.7597 28.6032C69.0704 28.4196 69.3387 28.1513 69.5646 27.7983C69.7906 27.4453 70.0095 27.0075 70.2213 26.4851C70.4472 25.9626 70.6873 25.3554 70.9414 24.6634H73.0172ZM60.1389 24.6634C60.3931 25.3554 60.6331 25.9626 60.8591 26.4851C61.085 27.0075 61.3109 27.4453 61.5369 27.7983C61.7769 28.1513 62.0382 28.4196 62.3206 28.6032C62.6171 28.7868 62.9701 28.8786 63.3797 28.8786V30.3824C62.9419 30.3824 62.5748 30.4601 62.2782 30.6154C61.9817 30.7708 61.7134 31.032 61.4733 31.3992C61.2474 31.7663 61.0073 32.2464 60.7532 32.8395C60.5131 33.4326 60.2236 34.1527 59.8847 35H57.7878C58.056 34.2657 58.2961 33.6161 58.5079 33.0513C58.7339 32.4723 58.9457 31.9781 59.1434 31.5686C59.3552 31.1591 59.5811 30.8202 59.8212 30.5519C60.0753 30.2836 60.3648 30.0788 60.6896 29.9376C61.0285 29.7823 61.4239 29.6835 61.8758 29.6411V29.5775C61.438 29.5352 61.0638 29.4363 60.7532 29.281C60.4566 29.1257 60.1883 28.9209 59.9483 28.6667C59.7082 28.3984 59.4893 28.0737 59.2916 27.6924C59.1081 27.3111 58.9174 26.8734 58.7197 26.3791C58.5362 25.8708 58.3314 25.2989 58.1055 24.6634H60.1389ZM65.0954 28.8786V30.3824H62.8925V28.8786H65.0954ZM66.4933 24.6634V27.6712C66.4933 27.996 66.4721 28.3208 66.4298 28.6456C66.3874 28.9703 66.3098 29.281 66.1968 29.5775C66.2815 29.8882 66.3521 30.1989 66.4086 30.5095C66.4651 30.8061 66.4933 31.0956 66.4933 31.378V35H64.6929V31.378C64.6929 31.0956 64.7211 30.8061 64.7776 30.5095C64.8341 30.1989 64.8977 29.8882 64.9683 29.5775C64.8694 29.281 64.7988 28.9703 64.7565 28.6456C64.7141 28.3208 64.6929 27.996 64.6929 27.6712V24.6634H66.4933ZM68.2302 28.8786V30.3824H66.1121V28.8786H68.2302ZM84.856 24.6634V35H83.0132V28.4126C83.0132 28.1725 83.0203 27.9395 83.0344 27.7136C83.0485 27.4876 83.0697 27.2405 83.0979 26.9722H83.0344C82.9497 27.184 82.8367 27.41 82.6955 27.65C82.5684 27.876 82.4413 28.0737 82.3142 28.2431L77.2942 35H75.5785V24.6634H77.4213V31.2721C77.4213 31.498 77.4142 31.7239 77.4001 31.9499C77.4001 32.1758 77.386 32.4229 77.3578 32.6912H77.4001C77.5131 32.4653 77.6331 32.2464 77.7602 32.0346C77.8873 31.8087 78.0144 31.618 78.1415 31.4627L83.1615 24.6634H84.856ZM92.7529 24.6634V35H90.6983V24.6634H92.7529ZM96.4384 24.6634V26.3156H87.0127V24.6634H96.4384ZM103.219 24.6634V35H101.165V24.6634H103.219ZM106.905 24.6634V26.3156H97.4793V24.6634H106.905ZM112.754 24.5364C113.545 24.5364 114.202 24.5434 114.724 24.5575C115.246 24.5575 115.712 24.5717 116.122 24.5999C116.531 24.614 116.955 24.6423 117.393 24.6846L117.139 26.2097C116.997 26.1815 116.531 26.1603 115.741 26.1462C114.964 26.132 113.983 26.125 112.796 26.125C111.977 26.125 111.434 26.2662 111.166 26.5486C110.911 26.8169 110.784 27.2617 110.784 27.883C110.784 28.5608 110.918 29.048 111.187 29.3446C111.469 29.627 112.027 29.7682 112.86 29.7682H117.16L117.202 31.2085C117.033 31.2085 116.764 31.2156 116.397 31.2297C116.03 31.2297 115.55 31.2297 114.957 31.2297C114.364 31.2297 113.644 31.2297 112.796 31.2297C112.316 31.2297 111.935 31.3144 111.653 31.4839C111.37 31.6533 111.18 31.9075 111.081 32.2464L110.318 35H108.2L109.132 31.8863C109.231 31.5898 109.386 31.3497 109.598 31.1662C109.824 30.9826 110.071 30.8484 110.339 30.7637C110.622 30.679 110.89 30.6225 111.144 30.5943V30.5095C110.579 30.4107 110.121 30.2412 109.768 30.0012C109.429 29.747 109.182 29.4222 109.026 29.0268C108.871 28.6314 108.793 28.1655 108.793 27.6289C108.793 27.1205 108.85 26.6757 108.963 26.2944C109.09 25.899 109.302 25.5743 109.598 25.3201C109.909 25.0518 110.318 24.8541 110.827 24.727C111.349 24.5999 111.992 24.5364 112.754 24.5364ZM117.393 24.6846V35H115.402V24.6846H117.393Z" fill="black"/>
<rect x="128.658" width="2" height="40" rx="1" fill="#5C0AAE"/>
<rect x="135.658" y="5" width="2" height="30" rx="1" fill="#5C0AAE"/>
<rect x="142.658" y="10" width="2" height="20" rx="1" fill="url(#paint0_linear_9_781)"/>
<defs>
<linearGradient id="paint0_linear_9_781" x1="142.658" y1="20" x2="144.658" y2="20" gradientUnits="userSpaceOnUse">
<stop stop-color="#9834ED"/>
<stop offset="1" stop-color="#5D5FEF"/>
</linearGradient>
</defs>
</svg>
