<svg width="162" height="45" viewBox="0 0 162 45" fill="none" xmlns="http://www.w3.org/2000/svg">
<path d="M4.5143 6.11221V22.4796H2.14222V6.11221H4.5143ZM12.0101 6.11221V7.98615H4.32453V6.11221H12.0101ZM14.1212 6.11221V22.4796H11.7491V6.11221H14.1212ZM22.8227 10.6192C24.6096 10.6192 25.8985 10.9433 26.6892 11.5917C27.4957 12.2243 27.9068 13.1652 27.9226 14.4145C27.9226 15.4582 27.6933 16.2647 27.2347 16.834C26.7761 17.4033 26.025 17.688 24.9813 17.688H18.2683V16.0512H24.3882C24.8943 16.0512 25.2264 15.8852 25.3845 15.5531C25.5585 15.221 25.6375 14.8415 25.6217 14.4145C25.6217 13.7029 25.4161 13.1968 25.005 12.8964C24.6096 12.5959 23.9138 12.4457 22.9176 12.4457C22.111 12.4457 21.4785 12.5643 21.0199 12.8015C20.5613 13.0387 20.2371 13.4498 20.0473 14.035C19.8576 14.6201 19.7627 15.4424 19.7627 16.5019C19.7627 17.688 19.8813 18.5973 20.1185 19.2298C20.3557 19.8465 20.7273 20.2735 21.2334 20.5107C21.7552 20.7479 22.4431 20.8665 23.2971 20.8665C23.9138 20.8665 24.5938 20.8428 25.3371 20.7954C26.0961 20.7321 26.784 20.661 27.4008 20.5819L27.6143 22.0763C27.2506 22.2344 26.792 22.3689 26.2385 22.4796C25.7008 22.5744 25.1473 22.6456 24.578 22.693C24.0087 22.7405 23.4869 22.7642 23.0124 22.7642C21.6683 22.7642 20.5771 22.5586 19.739 22.1475C18.9166 21.7363 18.3157 21.0879 17.9362 20.2024C17.5725 19.301 17.3906 18.1228 17.3906 16.668C17.3906 15.1498 17.5804 13.948 17.9599 13.0624C18.3394 12.1768 18.9246 11.5522 19.7152 11.1885C20.5059 10.8089 21.5417 10.6192 22.8227 10.6192ZM37.67 10.6192C39.1091 10.6192 40.137 11.141 40.7537 12.1847C41.3705 13.2284 41.6788 14.7545 41.6788 16.7628C41.6788 18.2652 41.5207 19.4591 41.2044 20.3447C40.8882 21.2144 40.4058 21.8391 39.7575 22.2186C39.1091 22.5823 38.2947 22.7642 37.3142 22.7642C36.5393 22.7642 35.7803 22.6614 35.037 22.4558C34.2938 22.2344 33.5901 21.9023 32.9259 21.4596L33.0682 20.1786C33.764 20.3842 34.3808 20.5503 34.9184 20.6768C35.4561 20.8033 36.0333 20.8665 36.65 20.8665C37.2984 20.8665 37.8124 20.7558 38.1919 20.5344C38.5872 20.3131 38.8719 19.9019 39.0458 19.301C39.2198 18.7 39.3068 17.854 39.3068 16.7628C39.3068 15.6875 39.2277 14.8494 39.0696 14.2484C38.9114 13.6317 38.6584 13.1968 38.3105 12.9438C37.9626 12.675 37.4882 12.5405 36.8872 12.5405C36.2863 12.5405 35.6933 12.6829 35.1082 12.9675C34.5231 13.2364 33.851 13.6633 33.0919 14.2484L32.831 12.8252C33.2263 12.3824 33.6849 11.995 34.2068 11.6629C34.7445 11.3308 35.3138 11.0778 35.9147 10.9038C36.5156 10.714 37.1007 10.6192 37.67 10.6192ZM32.7361 10.9038L32.997 13.2522L33.1631 13.5605V21.0089L33.0445 21.2935C33.0919 21.7363 33.1235 22.1712 33.1394 22.5982C33.171 23.0251 33.1789 23.4758 33.1631 23.9502V27.2H30.8859V10.9038H32.7361ZM49.6707 10.6192C51.4577 10.6192 52.7465 10.9433 53.5372 11.5917C54.3437 12.2243 54.7549 13.1652 54.7707 14.4145C54.7707 15.4582 54.5414 16.2647 54.0828 16.834C53.6242 17.4033 52.873 17.688 51.8293 17.688H45.1163V16.0512H51.2363C51.7423 16.0512 52.0744 15.8852 52.2326 15.5531C52.4065 15.221 52.4856 14.8415 52.4698 14.4145C52.4698 13.7029 52.2642 13.1968 51.853 12.8964C51.4577 12.5959 50.7619 12.4457 49.7656 12.4457C48.9591 12.4457 48.3265 12.5643 47.8679 12.8015C47.4093 13.0387 47.0851 13.4498 46.8954 14.035C46.7056 14.6201 46.6107 15.4424 46.6107 16.5019C46.6107 17.688 46.7293 18.5973 46.9665 19.2298C47.2038 19.8465 47.5754 20.2735 48.0814 20.5107C48.6033 20.7479 49.2912 20.8665 50.1451 20.8665C50.7619 20.8665 51.4419 20.8428 52.1851 20.7954C52.9442 20.7321 53.6321 20.661 54.2488 20.5819L54.4623 22.0763C54.0986 22.2344 53.64 22.3689 53.0865 22.4796C52.5488 22.5744 51.9954 22.6456 51.4261 22.693C50.8568 22.7405 50.3349 22.7642 49.8605 22.7642C48.5163 22.7642 47.4251 22.5586 46.587 22.1475C45.7647 21.7363 45.1638 21.0879 44.7842 20.2024C44.4205 19.301 44.2387 18.1228 44.2387 16.668C44.2387 15.1498 44.4284 13.948 44.808 13.0624C45.1875 12.1768 45.7726 11.5522 46.5633 11.1885C47.354 10.8089 48.3898 10.6192 49.6707 10.6192ZM70.9227 10.9038C71.492 10.9038 71.7766 11.1805 71.7766 11.734L72.2511 22.4796H70.1162L69.6892 12.6354H69.3097L66.5343 20.4396C66.4711 20.6768 66.3683 20.8586 66.226 20.9851C66.0837 21.1117 65.886 21.1749 65.633 21.1749H64.0437C63.7906 21.1749 63.593 21.1117 63.4506 20.9851C63.3241 20.8586 63.2213 20.6768 63.1423 20.4396L60.3669 12.6354H59.9874L59.5842 22.4796H57.473L57.9237 11.734C57.9395 11.1805 58.2321 10.9038 58.8014 10.9038H61.0786C61.3316 10.9038 61.5214 10.9671 61.6479 11.0936C61.7902 11.2043 61.893 11.3861 61.9562 11.6392L64.186 18.02C64.2967 18.3047 64.3837 18.5814 64.4469 18.8503C64.526 19.1191 64.5971 19.3959 64.6604 19.6805H65.0162C65.0953 19.38 65.1664 19.0954 65.2297 18.8266C65.3088 18.5577 65.3957 18.2889 65.4906 18.02L67.7204 11.6392C67.8627 11.1489 68.1632 10.9038 68.6218 10.9038H70.9227ZM80.5759 10.6192C81.9359 10.6192 83.0192 10.8168 83.8257 11.2122C84.6322 11.6075 85.2173 12.2559 85.581 13.1573C85.9447 14.0429 86.1266 15.221 86.1266 16.6917C86.1266 18.1782 85.9447 19.3721 85.581 20.2735C85.2173 21.1591 84.6322 21.7996 83.8257 22.1949C83.0192 22.5903 81.9359 22.7879 80.5759 22.7879C79.216 22.7879 78.1248 22.5903 77.3025 22.1949C76.496 21.7996 75.9109 21.1591 75.5471 20.2735C75.1834 19.3721 75.0016 18.1782 75.0016 16.6917C75.0016 15.221 75.1834 14.0429 75.5471 13.1573C75.9109 12.2559 76.496 11.6075 77.3025 11.2122C78.1248 10.8168 79.216 10.6192 80.5759 10.6192ZM80.5759 12.4694C79.7852 12.4694 79.1527 12.5959 78.6783 12.8489C78.2197 13.1019 77.8876 13.5368 77.682 14.1536C77.4922 14.7545 77.3974 15.6005 77.3974 16.6917C77.3974 17.7828 77.4922 18.6368 77.682 19.2535C77.8876 19.8703 78.2197 20.3051 78.6783 20.5582C79.1527 20.7954 79.7852 20.914 80.5759 20.914C81.3666 20.914 81.9913 20.7954 82.4499 20.5582C82.9085 20.3051 83.2327 19.8703 83.4224 19.2535C83.6122 18.6368 83.7071 17.7828 83.7071 16.6917C83.7071 15.6005 83.6122 14.7545 83.4224 14.1536C83.2327 13.5368 82.9085 13.1019 82.4499 12.8489C81.9913 12.5959 81.3666 12.4694 80.5759 12.4694ZM105.11 10.9038C104.841 11.6154 104.596 12.2559 104.374 12.8252C104.169 13.3787 103.955 13.8689 103.734 14.2959C103.528 14.7229 103.291 15.0866 103.022 15.387C102.769 15.6717 102.469 15.901 102.121 16.0749C101.773 16.2489 101.362 16.3596 100.887 16.407V16.4782C101.393 16.5256 101.828 16.6363 102.192 16.8103C102.556 16.9684 102.872 17.1977 103.141 17.4982C103.425 17.7987 103.686 18.1782 103.924 18.6368C104.161 19.0954 104.398 19.6489 104.635 20.2972C104.888 20.9298 105.157 21.6572 105.442 22.4796H103.093C102.73 21.5307 102.405 20.7242 102.121 20.06C101.852 19.3959 101.583 18.8582 101.314 18.447C101.045 18.0359 100.745 17.7433 100.413 17.5693C100.081 17.3954 99.6696 17.3084 99.1793 17.3084L99.1556 15.6242C99.6142 15.6242 100.01 15.5215 100.342 15.3159C100.69 15.1103 100.99 14.8098 101.243 14.4145C101.496 14.0191 101.741 13.5289 101.978 12.9438C102.231 12.3587 102.5 11.6787 102.785 10.9038H105.11ZM90.6873 10.9038C90.9719 11.6787 91.2408 12.3587 91.4938 12.9438C91.7468 13.5289 91.9998 14.0191 92.2529 14.4145C92.5217 14.8098 92.8143 15.1103 93.1305 15.3159C93.4626 15.5215 93.858 15.6242 94.3166 15.6242V17.3084C93.8264 17.3084 93.4152 17.3954 93.0831 17.5693C92.751 17.7433 92.4505 18.0359 92.1817 18.447C91.9287 18.8582 91.6599 19.3959 91.3752 20.06C91.1064 20.7242 90.7822 21.5307 90.4026 22.4796H88.0543C88.3548 21.6572 88.6236 20.9298 88.8608 20.2972C89.1138 19.6489 89.351 19.0954 89.5724 18.6368C89.8096 18.1782 90.0627 17.7987 90.3315 17.4982C90.6161 17.1977 90.9403 16.9684 91.304 16.8103C91.6836 16.6363 92.1264 16.5256 92.6324 16.4782V16.407C92.1422 16.3596 91.7231 16.2489 91.3752 16.0749C91.0431 15.901 90.7426 15.6717 90.4738 15.387C90.205 15.0866 89.9599 14.7229 89.7385 14.2959C89.5329 13.8689 89.3194 13.3787 89.098 12.8252C88.8924 12.2559 88.6631 11.6154 88.4101 10.9038H90.6873ZM96.238 15.6242V17.3084H93.771V15.6242H96.238ZM97.8035 10.9038V14.2722C97.8035 14.6359 97.7798 14.9996 97.7324 15.3633C97.6849 15.727 97.598 16.0749 97.4714 16.407C97.5663 16.7549 97.6454 17.1028 97.7087 17.4507C97.7719 17.7828 97.8035 18.107 97.8035 18.4233V22.4796H95.7873V18.4233C95.7873 18.107 95.8189 17.7828 95.8822 17.4507C95.9454 17.1028 96.0166 16.7549 96.0956 16.407C95.9849 16.0749 95.9059 15.727 95.8584 15.3633C95.811 14.9996 95.7873 14.6359 95.7873 14.2722V10.9038H97.8035ZM99.7486 15.6242V17.3084H97.3766V15.6242H99.7486ZM110.231 10.9038V22.4796H107.978V10.9038H110.231ZM116.233 15.4819V17.1898H110.089V15.4819H116.233ZM118.273 10.9038V22.4796H116.019V10.9038H118.273ZM126.763 10.6192C128.55 10.6192 129.839 10.9433 130.63 11.5917C131.436 12.2243 131.847 13.1652 131.863 14.4145C131.863 15.4582 131.634 16.2647 131.175 16.834C130.717 17.4033 129.966 17.688 128.922 17.688H122.209V16.0512H128.329C128.835 16.0512 129.167 15.8852 129.325 15.5531C129.499 15.221 129.578 14.8415 129.562 14.4145C129.562 13.7029 129.357 13.1968 128.946 12.8964C128.55 12.5959 127.854 12.4457 126.858 12.4457C126.052 12.4457 125.419 12.5643 124.961 12.8015C124.502 13.0387 124.178 13.4498 123.988 14.035C123.798 14.6201 123.703 15.4424 123.703 16.5019C123.703 17.688 123.822 18.5973 124.059 19.2298C124.296 19.8465 124.668 20.2735 125.174 20.5107C125.696 20.7479 126.384 20.8665 127.238 20.8665C127.854 20.8665 128.534 20.8428 129.278 20.7954C130.037 20.7321 130.725 20.661 131.341 20.5819L131.555 22.0763C131.191 22.2344 130.733 22.3689 130.179 22.4796C129.641 22.5744 129.088 22.6456 128.519 22.693C127.949 22.7405 127.427 22.7642 126.953 22.7642C125.609 22.7642 124.518 22.5586 123.68 22.1475C122.857 21.7363 122.256 21.0879 121.877 20.2024C121.513 19.301 121.331 18.1228 121.331 16.668C121.331 15.1498 121.521 13.948 121.901 13.0624C122.28 12.1768 122.865 11.5522 123.656 11.1885C124.447 10.8089 125.482 10.6192 126.763 10.6192ZM81.5046 27.9038C81.2357 28.6154 80.9906 29.2559 80.7692 29.8252C80.5637 30.3787 80.3502 30.8689 80.1288 31.2959C79.9232 31.7229 79.686 32.0866 79.4171 32.387C79.1641 32.6717 78.8637 32.901 78.5158 33.0749C78.1679 33.2489 77.7567 33.3596 77.2823 33.407V33.4782C77.7883 33.5256 78.2232 33.6363 78.5869 33.8103C78.9506 33.9684 79.2669 34.1977 79.5358 34.4982C79.8204 34.7987 80.0813 35.1782 80.3185 35.6368C80.5557 36.0954 80.793 36.6489 81.0302 37.2972C81.2832 37.9298 81.552 38.6572 81.8367 39.4796H79.4883C79.1246 38.5307 78.8004 37.7242 78.5158 37.06C78.2469 36.3959 77.9781 35.8582 77.7092 35.447C77.4404 35.0359 77.1399 34.7433 76.8079 34.5693C76.4758 34.3954 76.0646 34.3084 75.5744 34.3084L75.5507 32.6242C76.0093 32.6242 76.4046 32.5215 76.7367 32.3159C77.0846 32.1103 77.3851 31.8098 77.6381 31.4145C77.8911 31.0191 78.1362 30.5289 78.3734 29.9438C78.6265 29.3587 78.8953 28.6787 79.1799 27.9038H81.5046ZM67.0823 27.9038C67.367 28.6787 67.6358 29.3587 67.8888 29.9438C68.1419 30.5289 68.3949 31.0191 68.6479 31.4145C68.9167 31.8098 69.2093 32.1103 69.5256 32.3159C69.8577 32.5215 70.253 32.6242 70.7116 32.6242V34.3084C70.2214 34.3084 69.8102 34.3954 69.4781 34.5693C69.146 34.7433 68.8456 35.0359 68.5767 35.447C68.3237 35.8582 68.0549 36.3959 67.7702 37.06C67.5014 37.7242 67.1772 38.5307 66.7977 39.4796H64.4493C64.7498 38.6572 65.0186 37.9298 65.2558 37.2972C65.5089 36.6489 65.7461 36.0954 65.9675 35.6368C66.2047 35.1782 66.4577 34.7987 66.7265 34.4982C67.0112 34.1977 67.3354 33.9684 67.6991 33.8103C68.0786 33.6363 68.5214 33.5256 69.0274 33.4782V33.407C68.5372 33.3596 68.1181 33.2489 67.7702 33.0749C67.4381 32.901 67.1377 32.6717 66.8688 32.387C66.6 32.0866 66.3549 31.7229 66.1335 31.2959C65.9279 30.8689 65.7144 30.3787 65.493 29.8252C65.2875 29.2559 65.0582 28.6154 64.8051 27.9038H67.0823ZM72.633 32.6242V34.3084H70.166V32.6242H72.633ZM74.1986 27.9038V31.2722C74.1986 31.6359 74.1749 31.9996 74.1274 32.3633C74.08 32.727 73.993 33.0749 73.8665 33.407C73.9614 33.7549 74.0404 34.1028 74.1037 34.4507C74.1669 34.7828 74.1986 35.107 74.1986 35.4233V39.4796H72.1823V35.4233C72.1823 35.107 72.2139 34.7828 72.2772 34.4507C72.3404 34.1028 72.4116 33.7549 72.4907 33.407C72.38 33.0749 72.3009 32.727 72.2535 32.3633C72.206 31.9996 72.1823 31.6359 72.1823 31.2722V27.9038H74.1986ZM76.1437 32.6242V34.3084H73.7716V32.6242H76.1437ZM94.7626 27.9038V39.4796H92.6989V32.1024C92.6989 31.8336 92.7068 31.5726 92.7227 31.3196C92.7385 31.0666 92.7622 30.7898 92.7938 30.4894H92.7227C92.6278 30.7266 92.5013 30.9796 92.3431 31.2484C92.2008 31.5015 92.0585 31.7229 91.9162 31.9126L86.2943 39.4796H84.3729V27.9038H86.4366V35.3047C86.4366 35.5577 86.4287 35.8107 86.4129 36.0638C86.4129 36.3168 86.3971 36.5935 86.3655 36.894H86.4129C86.5394 36.641 86.6739 36.3959 86.8162 36.1586C86.9585 35.9056 87.1008 35.6921 87.2432 35.5182L92.865 27.9038H94.7626ZM103.606 27.9038V39.4796H101.305V27.9038H103.606ZM107.734 27.9038V29.754H97.1779V27.9038H107.734ZM115.328 27.9038V39.4796H113.027V27.9038H115.328ZM119.455 27.9038V29.754H108.899V27.9038H119.455ZM126.005 27.7615C126.891 27.7615 127.626 27.7694 128.211 27.7852C128.796 27.7852 129.318 27.801 129.777 27.8326C130.236 27.8485 130.71 27.8801 131.2 27.9275L130.916 29.6354C130.757 29.6038 130.236 29.5801 129.35 29.5643C128.48 29.5484 127.381 29.5405 126.053 29.5405C125.136 29.5405 124.527 29.6987 124.226 30.015C123.942 30.3154 123.799 30.8136 123.799 31.5094C123.799 32.2684 123.95 32.814 124.25 33.1461C124.566 33.4624 125.191 33.6205 126.124 33.6205H130.939L130.987 35.2335C130.797 35.2335 130.496 35.2414 130.085 35.2573C129.674 35.2573 129.136 35.2573 128.472 35.2573C127.808 35.2573 127.002 35.2573 126.053 35.2573C125.515 35.2573 125.088 35.3521 124.772 35.5419C124.456 35.7317 124.242 36.0163 124.131 36.3959L123.277 39.4796H120.905L121.949 35.9926C122.06 35.6605 122.234 35.3917 122.471 35.1861C122.724 34.9805 123.001 34.8303 123.301 34.7354C123.617 34.6405 123.918 34.5773 124.203 34.5456V34.4507C123.57 34.34 123.056 34.1503 122.661 33.8814C122.281 33.5968 122.004 33.2331 121.83 32.7903C121.657 32.3475 121.57 31.8256 121.57 31.2247C121.57 30.6554 121.633 30.1573 121.759 29.7303C121.902 29.2875 122.139 28.9238 122.471 28.6392C122.819 28.3387 123.277 28.1173 123.847 27.975C124.432 27.8326 125.151 27.7615 126.005 27.7615ZM131.2 27.9275V39.4796H128.97V27.9275H131.2Z" fill="white"/>
<rect x="144.082" width="2.23977" height="44.7954" rx="1.11988" fill="url(#paint0_linear_9_691)"/>
<rect x="151.921" y="5.59943" width="2.23977" height="33.5965" rx="1.11988" fill="url(#paint1_linear_9_691)"/>
<rect x="159.76" y="11.1989" width="2.23977" height="22.3977" rx="1.11988" fill="url(#paint2_linear_9_691)"/>
<defs>
<linearGradient id="paint0_linear_9_691" x1="144.082" y1="22.3977" x2="146.322" y2="22.3977" gradientUnits="userSpaceOnUse">
<stop stop-color="#9834ED"/>
<stop offset="1" stop-color="#5D5FEF"/>
</linearGradient>
<linearGradient id="paint1_linear_9_691" x1="151.921" y1="22.3977" x2="154.161" y2="22.3977" gradientUnits="userSpaceOnUse">
<stop stop-color="#9834ED"/>
<stop offset="1" stop-color="#5D5FEF"/>
</linearGradient>
<linearGradient id="paint2_linear_9_691" x1="159.76" y1="22.3977" x2="162" y2="22.3977" gradientUnits="userSpaceOnUse">
<stop stop-color="#9834ED"/>
<stop offset="1" stop-color="#5D5FEF"/>
</linearGradient>
</defs>
</svg>
